<svg width="60" height="56" viewBox="0 0 60 56" fill="none" xmlns="http://www.w3.org/2000/svg">
<path d="M12.6614 27.585V43.6994H30.0075L26.3899 40.3388H16.2789V30.9456L12.6614 27.585Z" fill="white"/>
<path d="M59.4543 52.5877L54.2632 47.6979V52.1004H3.61757V45.127H7.23512V42.4384H3.61757V31.2641H7.23512V28.5756H3.61757V17.8214H7.23512V15.1329H3.61757V5.73974L32.4494 32.3732V27.6346L3.09303 0.497072C2.84004 0.260095 2.51681 0.0984781 2.16455 0.0328277C1.8123 -0.0328227 1.44698 0.000467184 1.11517 0.128453C0.783364 0.25644 0.500099 0.473324 0.301494 0.751453C0.102889 1.02958 -0.0020587 1.35636 3.05989e-05 1.69012V53.7807C3.05989e-05 54.2264 0.190597 54.6538 0.529807 54.9689C0.869018 55.284 1.32909 55.4611 1.8088 55.4611H58.1701C58.5294 55.463 58.8811 55.3655 59.1805 55.181C59.4799 54.9965 59.7134 54.7334 59.8511 54.4251C59.9889 54.1169 60.0247 53.7775 59.9541 53.4502C59.8834 53.123 59.7094 52.8227 59.4543 52.5877Z" fill="white"/>
<path d="M39.7928 48.7397H47.0279C47.9874 48.7397 48.9075 48.3857 49.5859 47.7554C50.2643 47.1252 50.6455 46.2704 50.6455 45.379V12.9484L46.4853 5.84058C46.1635 5.32273 45.6989 4.89401 45.1393 4.59863C44.5797 4.30325 43.9454 4.15192 43.3019 4.16024C42.6437 4.16509 41.9995 4.33665 41.4385 4.65643C40.8776 4.97621 40.4211 5.43211 40.1184 5.97501L36.1753 12.982V45.379C36.1753 46.2704 36.5564 47.1252 37.2348 47.7554C37.9133 48.3857 38.8334 48.7397 39.7928 48.7397ZM39.7928 13.7886L43.3019 7.45371L47.0279 13.8054V38.6577H39.7928V13.7886ZM39.7928 41.3966H47.0279V45.4967H39.7928V41.3966Z" fill="white"/>
</svg>
