<svg width="76" height="56" viewBox="0 0 76 56" fill="none" xmlns="http://www.w3.org/2000/svg">
<path d="M73.0102 5.04192H59.4898V0.63024C59.4898 0.283608 59.1856 0 58.8138 0H54.0816C53.7098 0 53.4056 0.283608 53.4056 0.63024V5.04192H40.8992V0.63024C40.8992 0.283608 40.595 0 40.2232 0H35.4911C35.1193 0 34.8151 0.283608 34.8151 0.63024V5.04192H22.3087V0.63024C22.3087 0.283608 22.0045 0 21.6327 0H16.9005C16.5287 0 16.2245 0.283608 16.2245 0.63024V5.04192H2.70408C1.20839 5.04192 0 6.16847 0 7.56288V52.9402C0 54.3346 1.20839 55.4611 2.70408 55.4611H73.0102C74.5059 55.4611 75.7143 54.3346 75.7143 52.9402V7.56288C75.7143 6.16847 74.5059 5.04192 73.0102 5.04192ZM69.6301 49.789H6.08418V10.7141H16.2245V15.1258C16.2245 15.4724 16.5287 15.756 16.9005 15.756H21.6327C22.0045 15.756 22.3087 15.4724 22.3087 15.1258V10.7141H34.8151V15.1258C34.8151 15.4724 35.1193 15.756 35.4911 15.756H40.2232C40.595 15.756 40.8992 15.4724 40.8992 15.1258V10.7141H53.4056V15.1258C53.4056 15.4724 53.7098 15.756 54.0816 15.756H58.8138C59.1856 15.756 59.4898 15.4724 59.4898 15.1258V10.7141H69.6301V49.789ZM29.7449 26.4701H14.1964C13.8246 26.4701 13.5204 26.7537 13.5204 27.1003V30.8818C13.5204 31.2284 13.8246 31.512 14.1964 31.512H29.7449C30.1167 31.512 30.4209 31.2284 30.4209 30.8818V27.1003C30.4209 26.7537 30.1167 26.4701 29.7449 26.4701ZM29.7449 37.1842H14.1964C13.8246 37.1842 13.5204 37.4678 13.5204 37.8144V41.5958C13.5204 41.9425 13.8246 42.2261 14.1964 42.2261H29.7449C30.1167 42.2261 30.4209 41.9425 30.4209 41.5958V37.8144C30.4209 37.4678 30.1167 37.1842 29.7449 37.1842ZM55.7886 23.2086L47.0341 34.5293L42.5724 28.7705C42.3189 28.4396 41.9133 28.2505 41.4823 28.2505H36.8431C36.2938 28.2505 35.9727 28.8335 36.2938 29.251L45.9356 41.714C46.0601 41.8751 46.2238 42.0062 46.4133 42.0967C46.6029 42.1872 46.8127 42.2343 47.0257 42.2343C47.2386 42.2343 47.4485 42.1872 47.638 42.0967C47.8275 42.0062 47.9913 41.8751 48.1158 41.714L62.0587 23.697C62.3798 23.2795 62.0587 22.6965 61.5094 22.6965H56.8702C56.4477 22.6886 56.0421 22.8856 55.7886 23.2086Z" fill="white"/>
</svg>
