<svg width="63" height="56" viewBox="0 0 63 56" fill="none" xmlns="http://www.w3.org/2000/svg">
<path d="M62.9508 5.82342V0.831917L57.5806 0.277305C57.2823 0.277305 55.4922 0 52.5087 0C40.2766 0 31.3262 3.32767 26.2544 9.15108C22.3759 6.93264 17.0057 5.54611 10.7404 5.54611C7.75697 5.54611 5.66856 5.82342 5.66856 5.82342L0 6.65533L0.298345 11.3695C0.59669 19.6887 5.07187 35.4951 20.5858 35.4951H21.1825V44.9235C9.84539 46.31 0.298345 49.915 0.298345 49.915V55.4611H59.9674V49.915C59.9674 49.915 50.4203 46.31 39.0832 44.9235V36.0497C57.879 35.7724 62.9508 16.0837 62.9508 5.82342ZM30.1329 44.3689H27.1494V28.8398C27.1494 28.8398 26.5527 19.4114 18.1991 19.4114C18.1991 19.4114 22.6742 21.6298 23.8676 29.6717C22.6742 29.949 21.4808 29.949 20.5858 29.949C6.86194 29.949 6.26525 11.3695 6.26525 11.3695C6.26525 11.3695 8.05532 11.0922 10.7404 11.0922C16.409 11.0922 25.6577 12.2014 28.3428 19.6887C29.8345 7.20995 45.0501 5.54611 52.5087 5.54611C55.1938 5.54611 56.9839 5.82342 56.9839 5.82342C56.9839 5.82342 56.9839 30.7809 38.1882 30.7809H36.0998C36.0998 25.2348 42.0667 16.9156 42.0667 16.9156C33.1163 19.6887 33.1163 30.5036 33.1163 30.5036V44.3689H30.1329Z" fill="white"/>
</svg>
