<svg width="71" height="61" viewBox="0 0 71 61" fill="none" xmlns="http://www.w3.org/2000/svg">
<path d="M17.61 28.4197C20.2967 28.4197 22.72 27.0455 24.38 25.092C26.9675 22.0405 30.2157 19.5218 33.9167 17.6972C36.3267 16.514 38.4167 14.7516 39.4267 12.413C40.136 10.7746 40.5003 9.02601 40.5 7.26126V5.31088C40.5 4.698 40.7634 4.11021 41.2323 3.67684C41.7011 3.24347 42.337 3 43 3C44.9891 3 46.8968 3.7304 48.3033 5.03052C49.7098 6.33064 50.5 8.09399 50.5 9.93264C50.5 13.4821 49.6333 16.8437 48.09 19.8479C47.2033 21.5671 48.4467 23.7979 50.5067 23.7979H60.9267C64.3467 23.7979 67.41 25.9363 67.7733 29.0821C67.9233 30.3824 68 31.7011 68 33.0414C68.0138 41.4726 64.8968 49.6527 59.17 56.2149C57.8767 57.7001 55.88 58.4611 53.82 58.4611H40.4333C38.8214 58.4604 37.2201 58.2212 35.69 57.7524L25.31 54.548C23.7804 54.0778 22.1787 53.8385 20.5667 53.8394H15.18M15.18 53.8394C15.4567 54.471 15.7567 55.0872 16.08 55.6942C16.7367 56.9267 15.82 58.4611 14.3367 58.4611H11.31C8.34668 58.4611 5.60001 56.8651 4.73668 54.2461C3.58216 50.7435 2.99688 47.1019 3.00001 43.4404C3.00001 38.6553 3.98335 34.086 5.77001 29.8894C6.79001 27.5046 9.39001 26.1088 12.1667 26.1088H15.6767C17.25 26.1088 18.16 27.8219 17.3433 29.0667C14.4963 33.3987 12.9948 38.3717 13.0033 43.4404C12.9979 47.0042 13.7382 50.5354 15.1833 53.8394H15.18ZM43 23.7979H50.5" stroke="white" stroke-width="5" stroke-linecap="round" stroke-linejoin="round"/>
</svg>
