<svg width="24" height="15" viewBox="0 0 24 15" fill="none" xmlns="http://www.w3.org/2000/svg">
<path d="M12 15C11.713 15 11.4346 14.9426 11.1648 14.8281C10.8951 14.7137 10.6712 14.561 10.4933 14.3702L0.591928 3.83586C0.197309 3.41602 0 2.88167 0 2.23282C0 1.58397 0.197309 1.04961 0.591928 0.629768C0.986546 0.209922 1.48879 0 2.09866 0C2.70852 0 3.21077 0.209922 3.60538 0.629768L12 9.56103L20.3946 0.629768C20.7893 0.209922 21.2915 0 21.9013 0C22.5112 0 23.0135 0.209922 23.408 0.629768C23.8027 1.04961 24 1.58397 24 2.23282C24 2.88167 23.8027 3.41602 23.408 3.83586L13.5067 14.3702C13.2914 14.5992 13.0583 14.7617 12.8071 14.858C12.5561 14.9541 12.287 15.0015 12 15Z" fill="#48678E"/>
</svg>
