<svg width="12" height="8" viewBox="0 0 12 8" fill="none" xmlns="http://www.w3.org/2000/svg">
<path d="M6 7.49998C5.8565 7.49998 5.71731 7.47132 5.58242 7.41406C5.44753 7.35686 5.33561 7.28051 5.24663 7.18508L0.295964 1.91793C0.0986544 1.70801 0 1.44083 0 1.11641C0 0.791983 0.0986544 0.524807 0.295964 0.314884C0.493273 0.104961 0.744396 0 1.04933 0C1.35426 0 1.60538 0.104961 1.80269 0.314884L6 4.78051L10.1973 0.314884C10.3946 0.104961 10.6457 0 10.9507 0C11.2556 0 11.5067 0.104961 11.704 0.314884C11.9014 0.524807 12 0.791983 12 1.11641C12 1.44083 11.9014 1.70801 11.704 1.91793L6.75336 7.18508C6.64572 7.2996 6.52914 7.38086 6.40356 7.429C6.27804 7.47706 6.14352 7.50075 6 7.49998Z" fill="#48678E"/>
</svg>
