<svg width="50" height="48" viewBox="0 0 50 48" fill="none" xmlns="http://www.w3.org/2000/svg">
<path d="M45.451 30.8845L47.4576 23.0809V18.4559C46.5958 8.13017 38.1427 0 27.9661 0H24.5763V18.4559H12.3049L10.4146 9.80274C10.248 9.01917 9.8292 8.31776 9.22701 7.81395C8.62483 7.31014 7.8752 7.03395 7.10148 7.03083H0V10.5462H7.10148L11.3891 30.1744C9.85909 30.5947 8.47318 31.451 7.38836 32.6462C6.30354 33.8415 5.56316 35.3279 5.25109 36.9371C4.93903 38.5462 5.06776 40.2139 5.62269 41.7511C6.17762 43.2884 7.13657 44.6337 8.39093 45.6347C9.64528 46.6358 11.1449 47.2525 12.7199 47.4151C14.2949 47.5777 15.8823 47.2797 17.3023 46.5547C18.7224 45.8297 19.9182 44.7068 20.7545 43.3132C21.5907 41.9196 22.0339 40.311 22.0339 38.6696C22.0339 38.373 22.0198 38.08 21.9915 37.7907H33.0932C33.0653 38.0799 33.0512 38.3728 33.0508 38.6696C33.0502 40.2281 33.4492 41.7587 34.207 43.1046C34.9647 44.4505 36.054 45.5632 37.3631 46.3287C38.6721 47.0942 40.1539 47.4849 41.6566 47.4608C43.1593 47.4366 44.6287 46.9986 45.9143 46.1914C47.1999 45.3843 48.2554 44.2371 48.9726 42.8676C49.6898 41.498 50.043 39.9553 49.9958 38.3975C49.9487 36.8398 49.5029 35.3231 48.7043 34.0028C47.9056 32.6826 46.7828 31.6064 45.451 30.8845ZM27.9661 3.51542C36.2724 3.51542 43.1298 10.0714 43.9792 18.4559H27.9661V3.51542ZM13.5593 43.9427C12.5537 43.9427 11.5706 43.6334 10.7344 43.054C9.89821 42.4746 9.24648 41.651 8.86163 40.6875C8.47678 39.724 8.37608 38.6637 8.57228 37.6408C8.76847 36.6179 9.25275 35.6784 9.96386 34.9409C10.675 34.2034 11.581 33.7012 12.5673 33.4978C13.5537 33.2943 14.5761 33.3987 15.5052 33.7978C16.4343 34.1969 17.2284 34.8728 17.7871 35.74C18.3459 36.6071 18.6441 37.6266 18.6441 38.6696C18.6425 40.0676 18.1063 41.4079 17.1531 42.3965C16.1998 43.385 14.9074 43.9411 13.5593 43.9427ZM34.191 34.2753H20.8938C20.2567 33.1333 19.3803 32.1543 18.3294 31.4106C17.2785 30.667 16.0799 30.1778 14.8221 29.979L13.0729 21.9713H44.0678V22.6195L42.1928 29.9105C41.9708 29.8915 41.7482 29.8816 41.5254 29.8807C40.0387 29.8819 38.5783 30.2886 37.291 31.0599C36.0037 31.8312 34.9346 32.9401 34.191 34.2753ZM41.5254 43.9427C40.5198 43.9427 39.5367 43.6334 38.7005 43.054C37.8643 42.4746 37.2126 41.651 36.8277 40.6875C36.4429 39.724 36.3422 38.6637 36.5384 37.6408C36.7346 36.6179 37.2189 35.6784 37.93 34.9409C38.6411 34.2034 39.5471 33.7012 40.5334 33.4978C41.5198 33.2943 42.5422 33.3987 43.4713 33.7978C44.4004 34.1969 45.1945 34.8728 45.7532 35.74C46.312 36.6071 46.6102 37.6266 46.6102 38.6696C46.6086 40.0676 46.0724 41.4079 45.1192 42.3965C44.1659 43.385 42.8735 43.9411 41.5254 43.9427Z" fill="#48678E"/>
</svg>
