<svg width="26" height="52" viewBox="0 0 26 52" fill="none" xmlns="http://www.w3.org/2000/svg">
<path d="M10.2778 51.8524V45.6589C7.82407 45.0828 5.70648 43.9785 3.925 42.3461C2.14167 40.7137 0.833333 38.4092 0 35.4325L5.13889 33.2719C5.83333 35.5765 6.86389 37.3289 8.23056 38.5292C9.59537 39.7295 11.3889 40.3296 13.6111 40.3296C15.5093 40.3296 17.1185 39.886 18.4389 38.9987C19.7574 38.1096 20.4167 36.7288 20.4167 34.8563C20.4167 33.1759 19.9074 31.8431 18.8889 30.8579C17.8704 29.8747 15.5093 28.7589 11.8056 27.5106C7.82407 26.2143 5.09259 24.6664 3.61111 22.8669C2.12963 21.0655 1.38889 18.8685 1.38889 16.2759C1.38889 13.1551 2.36111 10.7306 4.30556 9.00215C6.25 7.27374 8.24074 6.2895 10.2778 6.04944V0H15.8333V6.04944C18.1481 6.43354 20.0583 7.30926 21.5639 8.67663C23.0676 10.0459 24.1667 11.7148 24.8611 13.6833L19.7222 15.9878C19.1667 14.4515 18.3796 13.2992 17.3611 12.531C16.3426 11.7628 14.9537 11.3787 13.1944 11.3787C11.1574 11.3787 9.60648 11.8473 8.54167 12.7845C7.47685 13.7198 6.94444 14.8836 6.94444 16.2759C6.94444 17.8603 7.63889 19.1086 9.02778 20.0208C10.4167 20.933 12.8241 21.8932 16.25 22.9015C19.4444 23.8617 21.8639 25.3856 23.5083 27.4731C25.1509 29.5626 25.9722 31.9756 25.9722 34.7123C25.9722 38.1211 25 40.7137 23.0556 42.4901C21.1111 44.2666 18.7037 45.3708 15.8333 45.8029V51.8524H10.2778Z" fill="#48678E"/>
</svg>
