<svg width="56" height="60" viewBox="0 0 56 60" fill="none" xmlns="http://www.w3.org/2000/svg">
<path fill-rule="evenodd" clip-rule="evenodd" d="M45.8886 6.57939C45.8886 8.32436 45.233 9.99785 44.0662 11.2317C42.8993 12.4656 41.3166 13.1588 39.6664 13.1588C38.0162 13.1588 36.4335 12.4656 35.2667 11.2317C34.0998 9.99785 33.4442 8.32436 33.4442 6.57939C33.4442 4.83443 34.0998 3.16094 35.2667 1.92706C36.4335 0.693184 38.0162 0 39.6664 0C41.3166 0 42.8993 0.693184 44.0662 1.92706C45.233 3.16094 45.8886 4.83443 45.8886 6.57939ZM42.7775 6.57939C42.7775 7.45188 42.4497 8.28862 41.8663 8.90556C41.2828 9.5225 40.4915 9.86909 39.6664 9.86909C38.8413 9.86909 38.05 9.5225 37.4665 8.90556C36.8831 8.28862 36.5553 7.45188 36.5553 6.57939C36.5553 5.70691 36.8831 4.87017 37.4665 4.25323C38.05 3.63629 38.8413 3.2897 39.6664 3.2897C40.4915 3.2897 41.2828 3.63629 41.8663 4.25323C42.4497 4.87017 42.7775 5.70691 42.7775 6.57939ZM7.77773 36.1867C7.77773 35.3142 8.1055 34.4774 8.68895 33.8605C9.27239 33.2436 10.0637 32.897 10.8888 32.897H15.5555C16.3806 32.897 17.1719 33.2436 17.7553 33.8605C18.3388 34.4774 18.6665 35.3142 18.6665 36.1867V39.4764H23.3332C24.1583 39.4764 24.9496 39.823 25.5331 40.4399C26.1165 41.0568 26.4443 41.8936 26.4443 42.7661V55.9249C26.4443 56.7973 26.1165 57.6341 25.5331 58.251C24.9496 58.868 24.1583 59.2145 23.3332 59.2145H3.11109C2.28598 59.2145 1.49466 58.868 0.911217 58.251C0.327775 57.6341 0 56.7973 0 55.9249V42.7661C0 41.8936 0.327775 41.0568 0.911217 40.4399C1.49466 39.823 2.28598 39.4764 3.11109 39.4764H7.77773V36.1867ZM3.11109 55.9249V42.7661H6.22218V55.9249H3.11109ZM15.5555 36.1867V39.4764H10.8888V36.1867H15.5555ZM17.111 42.7661H9.33327V55.9249H17.111V42.7661ZM20.2221 42.7661V55.9249H23.3332V42.7661H20.2221Z" fill="#48678E"/>
<path d="M49.7771 26.3176C49.7771 25.4451 49.4493 24.6084 48.8659 23.9914C48.2824 23.3745 47.4911 23.0279 46.666 23.0279V29.6073C47.4911 29.6073 48.2824 29.2607 48.8659 28.6438C49.4493 28.0268 49.7771 27.1901 49.7771 26.3176Z" fill="#48678E"/>
<path fill-rule="evenodd" clip-rule="evenodd" d="M34.2223 59.2145C32.9847 59.2145 31.7977 58.6947 30.9225 57.7692C30.0474 56.8438 29.5557 55.5887 29.5557 54.28V26.3176H21.778C20.5403 26.3176 19.3533 25.7977 18.4782 24.8723C17.603 23.9469 17.1113 22.6918 17.1113 21.383C17.1113 20.0743 17.603 18.8192 18.4782 17.8938C19.3533 16.9684 20.5403 16.4485 21.778 16.4485H48.2471C49.9784 16.4485 56 18.6921 56 25.6119C56 31.1041 52.2091 34.5385 49.7778 35.7228V54.28C49.7778 55.5887 49.2861 56.8438 48.411 57.7692C47.5358 58.6947 46.3488 59.2145 45.1111 59.2145C43.8735 59.2145 42.6865 58.6947 41.8113 57.7692C40.9362 56.8438 40.4445 55.5887 40.4445 54.28V41.1212H38.889V54.28C38.889 55.433 38.5156 56.494 37.8872 57.3345C37.4509 57.921 36.8943 58.395 36.2595 58.7206C35.6246 59.0463 34.928 59.2152 34.2223 59.2145ZM46.6667 33.6158L48.4758 32.7341C50.2553 31.8673 52.8889 29.3671 52.8889 25.6119C52.8889 23.319 51.9478 21.9308 50.8542 21.0245C50.3233 20.5874 49.7327 20.238 49.1027 19.9882C48.8299 19.8755 48.5468 19.7928 48.258 19.7415C48.2362 19.7382 48.2331 19.7382 48.2456 19.7382H21.778C21.3654 19.7382 20.9697 19.9115 20.678 20.2199C20.3863 20.5284 20.2224 20.9468 20.2224 21.383C20.2224 21.8193 20.3863 22.2376 20.678 22.5461C20.9697 22.8546 21.3654 23.0279 21.778 23.0279H32.6668V54.28C32.6668 54.7162 32.8307 55.1346 33.1224 55.4431C33.4141 55.7516 33.8098 55.9248 34.2223 55.9248C34.6349 55.9248 35.0305 55.7516 35.3223 55.4431C35.614 55.1346 35.7779 54.7162 35.7779 54.28V37.8315H43.5556V54.28C43.5556 54.7162 43.7195 55.1346 44.0112 55.4431C44.3029 55.7516 44.6986 55.9248 45.1111 55.9248C45.5237 55.9248 45.9194 55.7516 46.2111 55.4431C46.5028 55.1346 46.6667 54.7162 46.6667 54.28V33.6158Z" fill="#48678E"/>
</svg>
