<svg width="50" height="38" viewBox="0 0 50 38" fill="none" xmlns="http://www.w3.org/2000/svg">
<path d="M29.5455 13.9059V9.89909C30.7955 9.34914 32.0742 8.93668 33.3818 8.6617C34.6879 8.38673 36.0606 8.24924 37.5 8.24924C38.4848 8.24924 39.4508 8.32781 40.3977 8.48493C41.3447 8.64206 42.2727 8.83847 43.1818 9.07417V12.8452C42.2727 12.4917 41.3545 12.2269 40.4273 12.051C39.4985 11.8734 38.5227 11.7846 37.5 11.7846C36.0606 11.7846 34.678 11.9716 33.3523 12.3456C32.0265 12.718 30.7576 13.2381 29.5455 13.9059ZM29.5455 26.869V22.8622C30.7955 22.3122 32.0742 21.8998 33.3818 21.6248C34.6879 21.3498 36.0606 21.2123 37.5 21.2123C38.4848 21.2123 39.4508 21.2909 40.3977 21.448C41.3447 21.6052 42.2727 21.8016 43.1818 22.0373V25.8083C42.2727 25.4548 41.3545 25.19 40.4273 25.0141C39.4985 24.8365 38.5227 24.7477 37.5 24.7477C36.0606 24.7477 34.678 24.9245 33.3523 25.278C32.0265 25.6316 30.7576 26.1619 29.5455 26.869ZM29.5455 20.3874V16.3806C30.7955 15.8307 32.0742 15.4182 33.3818 15.1432C34.6879 14.8683 36.0606 14.7308 37.5 14.7308C38.4848 14.7308 39.4508 14.8094 40.3977 14.9665C41.3447 15.1236 42.2727 15.32 43.1818 15.5557V19.3268C42.2727 18.9733 41.3545 18.7085 40.4273 18.5325C39.4985 18.355 38.5227 18.2662 37.5 18.2662C36.0606 18.2662 34.678 18.4532 33.3523 18.8271C32.0265 19.1995 30.7576 19.7196 29.5455 20.3874ZM27.2727 30.7579C28.9394 29.933 30.6159 29.3139 32.3023 28.9006C33.9871 28.4889 35.7197 28.2831 37.5 28.2831C38.8636 28.2831 40.1992 28.401 41.5068 28.6367C42.8129 28.8723 44.1288 29.2259 45.4545 29.6973V6.3637C44.2045 5.81375 42.9076 5.40129 41.5636 5.12631C40.2182 4.85134 38.8636 4.71385 37.5 4.71385C35.7197 4.71385 33.9583 4.94955 32.2159 5.42093C30.4735 5.89232 28.8258 6.59939 27.2727 7.54216V30.7579ZM25 37.7108C23.1818 36.2181 21.2121 35.0593 19.0909 34.2344C16.9697 33.4094 14.7727 32.997 12.5 32.997C10.4924 32.997 8.39015 33.3898 6.19318 34.1754C3.99621 34.9611 1.93182 36.1788 0 37.8287V3.65324C1.66667 2.47477 3.62727 1.57128 5.88182 0.942771C8.13485 0.314257 10.3409 0 12.5 0C14.697 0 16.847 0.294616 18.95 0.883847C21.0515 1.47308 23.0682 2.35693 25 3.53539C26.9318 2.35693 28.9492 1.47308 31.0523 0.883847C33.1538 0.294616 35.303 0 37.5 0C39.6591 0 41.8659 0.314257 44.1205 0.942771C46.3735 1.57128 48.3333 2.47477 50 3.65324V37.8287C48.1061 36.1788 46.0515 34.9611 43.8364 34.1754C41.6197 33.3898 39.5076 32.997 37.5 32.997C35.2273 32.997 33.0303 33.4094 30.9091 34.2344C28.7879 35.0593 26.8182 36.2181 25 37.7108Z" fill="#48678E"/>
</svg>
