<svg width="50" height="52" viewBox="0 0 50 52" fill="none" xmlns="http://www.w3.org/2000/svg">
<path d="M46.425 33.3411L50 29.6336L46.425 25.9262L37.5 35.1818L16.075 12.9631L25 3.70744L21.425 0L17.85 3.70744L14.275 0L8.925 5.5482L5.35 1.84076L1.775 5.5482L5.35 9.25565L0 14.8039L3.575 18.5113L0 22.2187L3.575 25.9262L12.5 16.6705L33.925 38.8893L25 48.1449L28.575 51.8524L32.15 48.1449L35.725 51.8524L41.075 46.3042L44.65 50.0116L48.225 46.3042L44.65 42.5967L50 37.0485L46.425 33.3411Z" fill="white"/>
</svg>
