<svg width="50" height="52" viewBox="0 0 50 52" fill="none" xmlns="http://www.w3.org/2000/svg">
<path d="M27.5 12.9631H20C19.337 12.9631 18.7011 13.2362 18.2322 13.7225C17.7634 14.2087 17.5 14.8681 17.5 15.5557V36.2967C17.5 36.9843 17.7634 37.6437 18.2322 38.1299C18.7011 38.6161 19.337 38.8893 20 38.8893C20.663 38.8893 21.2989 38.6161 21.7678 38.1299C22.2366 37.6437 22.5 36.9843 22.5 36.2967V31.1114H27.5C29.4891 31.1114 31.3968 30.292 32.8033 28.8333C34.2098 27.3747 35 25.3964 35 23.3336V20.7409C35 18.6781 34.2098 16.6998 32.8033 15.2412C31.3968 13.7825 29.4891 12.9631 27.5 12.9631ZM30 23.3336C30 24.0212 29.7366 24.6806 29.2678 25.1668C28.7989 25.653 28.163 25.9262 27.5 25.9262H22.5V18.1483H27.5C28.163 18.1483 28.7989 18.4215 29.2678 18.9077C29.7366 19.3939 30 20.0533 30 20.7409V23.3336ZM25 0C20.0555 0 15.222 1.52054 11.1108 4.36935C6.99953 7.21816 3.79521 11.2673 1.90302 16.0047C0.0108321 20.7421 -0.484251 25.9549 0.480379 30.9841C1.44501 36.0133 3.82603 40.6329 7.32234 44.2588C10.8187 47.8846 15.2732 50.3538 20.1228 51.3542C24.9723 52.3546 29.9989 51.8411 34.5671 49.8789C39.1352 47.9166 43.0397 44.5935 45.7867 40.33C48.5338 36.0665 50 31.0539 50 25.9262C50 22.5215 49.3534 19.1502 48.097 16.0047C46.8406 12.8592 44.9991 10.0011 42.6777 7.5936C40.3562 5.18613 37.6002 3.27643 34.5671 1.97351C31.534 0.670601 28.2831 0 25 0ZM25 46.6671C21.0444 46.6671 17.1776 45.4507 13.8886 43.1716C10.5996 40.8926 8.03617 37.6533 6.52242 33.8634C5.00867 30.0735 4.6126 25.9032 5.38431 21.8798C6.15601 17.8565 8.06082 14.1608 10.8579 11.2601C13.6549 8.35945 17.2186 6.38406 21.0982 5.58377C24.9778 4.78347 28.9992 5.19421 32.6537 6.76405C36.3082 8.33388 39.4318 10.9923 41.6294 14.4031C43.827 17.814 45 21.824 45 25.9262C45 31.427 42.8929 36.7026 39.1421 40.5922C35.3914 44.4819 30.3043 46.6671 25 46.6671Z" fill="#48678E"/>
</svg>
