<svg width="50" height="52" viewBox="0 0 50 52" fill="none" xmlns="http://www.w3.org/2000/svg">
<path fill-rule="evenodd" clip-rule="evenodd" d="M40.972 5.76134C40.972 7.28934 40.3866 8.75476 39.3448 9.83522C38.3029 10.9157 36.8899 11.5227 35.4164 11.5227C33.943 11.5227 32.53 10.9157 31.4881 9.83522C30.4462 8.75476 29.8609 7.28934 29.8609 5.76134C29.8609 4.23334 30.4462 2.76792 31.4881 1.68746C32.53 0.606996 33.943 0 35.4164 0C36.8899 0 38.3029 0.606996 39.3448 1.68746C40.3866 2.76792 40.972 4.23334 40.972 5.76134ZM38.1942 5.76134C38.1942 6.52534 37.9015 7.25805 37.3806 7.79828C36.8597 8.33851 36.1531 8.64201 35.4164 8.64201C34.6797 8.64201 33.9732 8.33851 33.4523 7.79828C32.9313 7.25805 32.6387 6.52534 32.6387 5.76134C32.6387 4.99734 32.9313 4.26463 33.4523 3.7244C33.9732 3.18417 34.6797 2.88067 35.4164 2.88067C36.1531 2.88067 36.8597 3.18417 37.3806 3.7244C37.9015 4.26463 38.1942 4.99734 38.1942 5.76134ZM6.9444 31.6874C6.9444 30.9234 7.23706 30.1906 7.75799 29.6504C8.27892 29.1102 8.98545 28.8067 9.72216 28.8067H13.8888C14.6255 28.8067 15.332 29.1102 15.853 29.6504C16.3739 30.1906 16.6666 30.9234 16.6666 31.6874V34.568H20.8332C21.5699 34.568 22.2764 34.8715 22.7974 35.4118C23.3183 35.952 23.611 36.6847 23.611 37.4487V48.9714C23.611 49.7354 23.3183 50.4681 22.7974 51.0083C22.2764 51.5485 21.5699 51.852 20.8332 51.852H2.77776C2.04105 51.852 1.33452 51.5485 0.813587 51.0083C0.292656 50.4681 0 49.7354 0 48.9714V37.4487C0 36.6847 0.292656 35.952 0.813587 35.4118C1.33452 34.8715 2.04105 34.568 2.77776 34.568H6.9444V31.6874ZM2.77776 48.9714V37.4487H5.55552V48.9714H2.77776ZM13.8888 31.6874V34.568H9.72216V31.6874H13.8888ZM15.2777 37.4487H8.33328V48.9714H15.2777V37.4487ZM18.0554 37.4487V48.9714H20.8332V37.4487H18.0554Z" fill="white"/>
<path d="M44.4438 23.0454C44.4438 22.2814 44.1511 21.5487 43.6302 21.0085C43.1093 20.4682 42.4027 20.1647 41.666 20.1647V25.9261C42.4027 25.9261 43.1093 25.6226 43.6302 25.0823C44.1511 24.5421 44.4438 23.8094 44.4438 23.0454Z" fill="white"/>
<path fill-rule="evenodd" clip-rule="evenodd" d="M30.555 51.8521C29.45 51.8521 28.3902 51.3968 27.6088 50.5865C26.8274 49.7761 26.3884 48.6771 26.3884 47.5311V23.0454H19.444C18.3389 23.0454 17.2791 22.5901 16.4977 21.7798C15.7163 20.9694 15.2773 19.8704 15.2773 18.7244C15.2773 17.5784 15.7163 16.4793 16.4977 15.669C17.2791 14.8586 18.3389 14.4034 19.444 14.4034H43.0772C44.623 14.4034 49.9993 16.368 49.9993 22.4275C49.9993 27.2368 46.6146 30.2442 44.4438 31.2812V47.5311C44.4438 48.6771 44.0048 49.7761 43.2234 50.5865C42.442 51.3968 41.3822 51.8521 40.2772 51.8521C39.1721 51.8521 38.1123 51.3968 37.3309 50.5865C36.5495 49.7761 36.1105 48.6771 36.1105 47.5311V36.0084H34.7217V47.5311C34.7217 48.5407 34.3883 49.4698 33.8272 50.2058C33.4377 50.7193 32.9407 51.1344 32.3739 51.4196C31.807 51.7048 31.1851 51.8527 30.555 51.8521ZM41.6661 29.4362L43.2813 28.6641C44.8702 27.9051 47.2216 25.7158 47.2216 22.4275C47.2216 20.4197 46.3813 19.204 45.4049 18.4104C44.9308 18.0277 44.4036 17.7218 43.8411 17.503C43.5975 17.4043 43.3448 17.3319 43.0869 17.2869C43.0674 17.2841 43.0647 17.284 43.0758 17.284H19.444C19.0756 17.284 18.7224 17.4358 18.4619 17.7059C18.2014 17.976 18.0551 18.3424 18.0551 18.7244C18.0551 19.1064 18.2014 19.4727 18.4619 19.7429C18.7224 20.013 19.0756 20.1647 19.444 20.1647H29.1661V47.5311C29.1661 47.9131 29.3125 48.2794 29.5729 48.5495C29.8334 48.8197 30.1867 48.9714 30.555 48.9714C30.9234 48.9714 31.2766 48.8197 31.5371 48.5495C31.7976 48.2794 31.9439 47.9131 31.9439 47.5311V33.1277H38.8883V47.5311C38.8883 47.9131 39.0346 48.2794 39.2951 48.5495C39.5556 48.8197 39.9088 48.9714 40.2772 48.9714C40.6455 48.9714 40.9988 48.8197 41.2593 48.5495C41.5197 48.2794 41.6661 47.9131 41.6661 47.5311V29.4362Z" fill="white"/>
</svg>
