<svg width="56" height="49" viewBox="0 0 56 49" fill="none" xmlns="http://www.w3.org/2000/svg">
<path d="M43.2578 20.7711C44.0052 22.1093 44.5612 23.5034 44.9258 24.9532C45.2904 26.403 45.4818 27.8992 45.5 29.4419V32.3137L28 41.2633L10.5 32.3137C10.5 31.1984 10.5091 30.1576 10.5273 29.191C10.5456 28.2245 10.6276 27.2858 10.7734 26.3751C10.9193 25.4643 11.138 24.5535 11.4297 23.6428C11.7214 22.732 12.1589 21.7748 12.7422 20.7711L7 17.8436V34.2095C7.52865 34.3954 8.0026 34.6556 8.42187 34.9902C8.84115 35.3248 9.21484 35.7151 9.54297 36.1612C9.87109 36.6073 10.1081 37.0905 10.2539 37.611C10.3997 38.1314 10.4818 38.6797 10.5 39.2559V48.1777H0V39.2559C0 38.6983 0.0820312 38.1593 0.246094 37.6389C0.410156 37.1184 0.647135 36.6259 0.957031 36.1612C1.26693 35.6965 1.63151 35.3062 2.05078 34.9902C2.47005 34.6742 2.95312 34.414 3.5 34.2095V16.0592L0 14.2749L28 0L56 14.2749L43.2578 20.7711ZM7 39.2559C7 38.7727 6.82682 38.3545 6.48047 38.0013C6.13411 37.6481 5.72396 37.4716 5.25 37.4716C4.77604 37.4716 4.36589 37.6481 4.01953 38.0013C3.67318 38.3545 3.5 38.7727 3.5 39.2559V44.609H7V39.2559ZM7.82031 14.2749L28 24.5628L48.1797 14.2749L28 3.98693L7.82031 14.2749ZM42 30.1111C42 28.6799 41.8633 27.3509 41.5898 26.1242C41.3164 24.8974 40.8333 23.6428 40.1406 22.3603L28 28.5498L15.8594 22.3603C15.2578 23.4383 14.8021 24.5721 14.4922 25.7617C14.1823 26.9513 14.0182 28.178 14 29.4419V30.1111L28 37.2485L42 30.1111Z" fill="#48678E"/>
</svg>
