<svg width="50" height="52" viewBox="0 0 50 52" fill="none" xmlns="http://www.w3.org/2000/svg">
<path d="M16.5509 2.23015C17.1967 2.9992 17.6613 3.91339 17.908 4.90056C18.1548 5.88772 18.1769 6.92085 17.9726 7.9184C19.4629 7.13643 21.0838 6.65767 22.7478 6.508C25.3201 6.27483 27.9014 6.83847 30.1647 8.12753C36.0527 11.4792 40.8998 16.4985 44.1402 22.5996C44.9985 24.2096 45.5304 25.9846 45.7032 27.8155C45.8761 29.6464 45.6862 31.4947 45.1453 33.2467C46.1366 33.4833 47.0565 33.9695 47.8237 34.6623L47.8304 34.6675C50.5971 37.1875 50.7305 41.5777 48.157 44.2257C47.1629 45.2592 45.8639 45.9181 44.4669 46.0975C44.3002 47.5027 43.7002 48.8475 42.6602 49.9277C42.0479 50.5645 41.3158 51.0638 40.5093 51.3942C39.7028 51.7247 38.8394 51.8793 37.9727 51.8485C37.1061 51.8177 36.2549 51.6021 35.4721 51.2151C34.6894 50.8282 33.9919 50.2781 33.4232 49.5993V49.5959C32.7531 48.7975 32.2836 47.8398 32.0564 46.8079C30.368 47.3669 28.5875 47.5639 26.8233 47.3868C25.0591 47.2097 23.3481 46.6622 21.7944 45.7778C15.9153 42.4204 11.0755 37.402 7.8372 31.3057C6.52632 28.8488 5.98792 26.0287 6.29715 23.2391C6.47428 21.6363 6.92642 20.0793 7.6322 18.6415C6.67038 18.8527 5.6744 18.8293 4.7228 18.5732C3.7712 18.317 2.88999 17.8351 2.14866 17.1655L2.14199 17.1603C1.49457 16.5687 0.970815 15.846 0.602993 15.0365C0.235171 14.2271 0.0310751 13.3481 0.00328007 12.4538C-0.0245149 11.5594 0.12458 10.6686 0.441378 9.83631C0.758176 9.00399 1.23597 8.24775 1.84531 7.61419C2.83299 6.57407 4.13144 5.91178 5.52878 5.7354C5.69546 4.34229 6.29215 2.98548 7.33385 1.90521L7.33885 1.90003C7.95175 1.27091 8.68208 0.77822 9.48508 0.45215C10.2881 0.12608 11.1468 -0.0265001 12.0087 0.00376176C12.8706 0.0340236 13.7174 0.24649 14.4973 0.628138C15.2772 1.00979 15.9737 1.55258 16.5442 2.22324L16.5509 2.23015ZM32.3015 42.995C32.4631 42.5456 32.6698 42.1135 32.9231 41.7022C31.8657 42.5184 30.5812 42.9563 29.263 42.9501C27.6129 42.9501 26.0796 42.2933 24.9128 41.0834C23.7461 39.8735 23.1128 38.2833 23.1128 36.5722C23.1128 34.8611 23.7461 33.2709 24.9128 32.061L30.9131 25.8387C32.0798 24.6288 33.6132 23.972 35.2632 23.972C36.8966 23.972 38.4467 24.6461 39.6134 25.8387C40.7801 27.0486 41.4135 28.6387 41.4135 30.3499C41.4135 31.7413 40.9968 33.0514 40.2134 34.1438C40.6101 33.8793 41.0334 33.6633 41.4701 33.4956C42.1422 32.0492 42.4704 30.4569 42.4272 28.852C42.384 27.2471 41.9707 25.6762 41.2218 24.271C38.2868 18.7427 33.8957 14.1945 28.5613 11.1575C26.8757 10.1978 24.9534 9.77851 23.0378 9.95275C20.7618 10.1558 18.6272 11.1824 17.0075 12.853L12.3907 17.6581C10.9015 19.2001 9.93662 21.2027 9.64165 23.3635C9.34669 25.5243 9.7377 27.726 10.7556 29.636C13.6889 35.1597 18.0733 39.707 23.3995 42.7496C24.7579 43.5213 26.2742 43.9462 27.8227 43.9888C29.3711 44.0315 30.907 43.6908 32.3031 42.995H32.3015ZM8.81391 6.50455V6.53911C8.7689 7.92877 7.68886 9.13175 6.26381 9.14212C5.49496 9.15018 4.76039 9.47328 4.2204 10.0409L4.2104 10.053C3.00202 11.3044 3.04369 13.3647 4.34874 14.5676C4.89284 15.0534 5.58614 15.3219 6.30407 15.3251C7.022 15.3283 7.71749 15.0658 8.26555 14.5849C8.63609 14.2419 9.09633 14.0204 9.58817 13.9484C10.08 13.8764 10.5814 13.9572 11.029 14.1805L13.6674 11.4323C13.4534 10.9686 13.3764 10.4496 13.4461 9.94058C13.5158 9.43159 13.7291 8.95534 14.0591 8.57174C14.5228 8.00339 14.7759 7.28216 14.7729 6.53766C14.7698 5.79315 14.5108 5.07418 14.0424 4.50994C13.7727 4.19271 13.4434 3.93585 13.0746 3.75507C12.7059 3.57428 12.3055 3.47336 11.8979 3.45848C11.4902 3.44359 11.084 3.51506 10.7039 3.66851C10.3238 3.82195 9.97789 4.05416 9.68727 4.35093C9.10892 4.95242 8.82057 5.72503 8.81057 6.50455H8.81391ZM32.8948 31.7101L30.5781 34.1126C30.5697 34.1212 30.5631 34.1314 30.5588 34.1427C30.5545 34.154 30.5525 34.1662 30.5531 34.1783C30.5531 34.2077 30.5631 34.2302 30.5781 34.244L35.8949 39.7577C36.3306 40.2079 36.5843 40.8134 36.6044 41.4509C36.6246 42.0884 36.4096 42.7098 36.0033 43.1886C34.9882 44.4054 34.9816 46.184 35.9399 47.3299C36.2085 47.6508 36.538 47.9108 36.9078 48.0937C37.2776 48.2766 37.6799 48.3785 38.0893 48.3929C38.4988 48.4073 38.9068 48.334 39.2878 48.1776C39.6687 48.0212 40.0145 47.785 40.3034 47.4837C40.858 46.9165 41.1738 46.1448 41.1818 45.337C41.1901 43.8575 42.3518 42.7375 43.6935 42.6925L43.7102 42.6908H43.7269C44.4769 42.6787 45.2253 42.3797 45.8036 41.7799L45.8086 41.7747C46.997 40.5528 46.9653 38.4838 45.637 37.2687C44.5319 36.2766 42.8202 36.2853 41.6468 37.3379C41.1847 37.76 40.5846 37.9833 39.9691 37.9621C39.3536 37.9409 38.7691 37.6768 38.335 37.2238L33.0181 31.7101C33.0099 31.7014 33.0001 31.6946 32.9892 31.6902C32.9782 31.6857 32.9665 31.6837 32.9548 31.6842C32.9434 31.6839 32.932 31.6861 32.9214 31.6905C32.9108 31.695 32.9028 31.7017 32.8948 31.7101Z" fill="#48678E"/>
</svg>
