<svg width="56" height="60" viewBox="0 0 56 60" fill="none" xmlns="http://www.w3.org/2000/svg">
<path d="M51.996 38.0752L56 33.8413L51.996 29.6075L42 40.1773L18.004 14.8037L28 4.23387L23.996 0L19.992 4.23387L15.988 0L9.996 6.336L5.992 2.10213L1.988 6.336L5.992 10.5699L0 16.9059L4.004 21.1397L0 25.3736L4.004 29.6075L14 19.0376L37.996 44.4112L28 54.9811L32.004 59.2149L36.008 54.9811L40.012 59.2149L46.004 52.8789L50.008 57.1128L54.012 52.8789L50.008 48.6451L56 42.3091L51.996 38.0752Z" fill="#48678E"/>
</svg>
