<svg width="50" height="43" viewBox="0 0 50 43" fill="none" xmlns="http://www.w3.org/2000/svg">
<path d="M38.623 18.1885C39.2904 19.3604 39.7868 20.5811 40.1123 21.8506C40.4378 23.1201 40.6087 24.4303 40.625 25.7812V28.2959L25 36.1328L9.375 28.2959C9.375 27.3193 9.38314 26.4079 9.39941 25.5615C9.41569 24.7152 9.48893 23.8932 9.61914 23.0957C9.74935 22.2982 9.94466 21.5007 10.2051 20.7031C10.4655 19.9056 10.8561 19.0674 11.377 18.1885L6.25 15.625V29.9561C6.72201 30.1188 7.14518 30.3467 7.51953 30.6396C7.89388 30.9326 8.22754 31.2744 8.52051 31.665C8.81348 32.0557 9.02507 32.4788 9.15527 32.9346C9.28548 33.3903 9.35872 33.8704 9.375 34.375V42.1875H0V34.375C0 33.8867 0.0732422 33.4147 0.219727 32.959C0.366211 32.5033 0.577799 32.0719 0.854492 31.665C1.13118 31.2581 1.45671 30.9163 1.83105 30.6396C2.2054 30.363 2.63672 30.1351 3.125 29.9561V14.0625L0 12.5L25 0L50 12.5L38.623 18.1885ZM6.25 34.375C6.25 33.9518 6.09538 33.5856 5.78613 33.2764C5.47689 32.9671 5.11068 32.8125 4.6875 32.8125C4.26432 32.8125 3.89811 32.9671 3.58887 33.2764C3.27962 33.5856 3.125 33.9518 3.125 34.375V39.0625H6.25V34.375ZM6.98242 12.5L25 21.5088L43.0176 12.5L25 3.49121L6.98242 12.5ZM37.5 26.3672C37.5 25.1139 37.3779 23.9502 37.1338 22.876C36.8896 21.8018 36.4583 20.7031 35.8398 19.5801L25 25L14.1602 19.5801C13.623 20.5241 13.2161 21.5169 12.9395 22.5586C12.6628 23.6003 12.5163 24.6745 12.5 25.7812V26.3672L25 32.6172L37.5 26.3672Z" fill="white"/>
</svg>
