<svg width="100" height="104" viewBox="0 0 100 104" fill="none" xmlns="http://www.w3.org/2000/svg">
<path d="M7.3148 99.8074C7.3148 101.197 6.89279 102.245 6.04877 102.952C5.21328 103.65 4.0453 104 2.54483 104H0V95.7763H2.81338C3.7256 95.7763 4.51846 95.9298 5.19197 96.237C5.874 96.5441 6.39832 96.9971 6.76491 97.596C7.1315 98.1949 7.3148 98.9321 7.3148 99.8074ZM6.09993 99.8419C6.09993 98.7439 5.79727 97.9415 5.19197 97.4348C4.59519 96.9203 3.74692 96.6631 2.64714 96.6631H1.15093V103.113H2.39138C4.86374 103.113 6.09993 102.023 6.09993 99.8419Z" fill="#F4D689"/>
<path d="M18.894 95.7763C20.0279 95.7763 20.8634 95.972 21.4005 96.3636C21.9461 96.7476 22.2189 97.3311 22.2189 98.1143C22.2189 98.552 22.1294 98.9167 21.9504 99.2085C21.7713 99.5003 21.5412 99.7344 21.2598 99.911C20.987 100.088 20.6972 100.222 20.3902 100.314L22.8967 104H21.554L19.3416 100.602H17.5257V104H16.3748V95.7763H18.894ZM18.8301 96.6746H17.5257V99.7268H18.894C19.6357 99.7268 20.1771 99.5962 20.5181 99.3352C20.8591 99.0664 21.0296 98.6748 21.0296 98.1604C21.0296 97.6229 20.8506 97.2428 20.4925 97.0201C20.1345 96.7898 19.5803 96.6746 18.8301 96.6746Z" fill="#F4D689"/>
<path d="M36.4658 104H31.3633V95.7763H36.4658V96.6861H32.5143V99.2545H36.2356V100.153H32.5143V103.09H36.4658V104Z" fill="#F4D689"/>
<path d="M51.2317 104L50.132 101.454H46.5129L45.4259 104H44.2622L47.8301 95.7417H48.8659L52.421 104H51.2317ZM49.7867 100.533L48.7636 98.0452C48.7381 97.9838 48.6954 97.8724 48.6358 97.7112C48.5761 97.55 48.5164 97.3849 48.4567 97.2159C48.4056 97.0393 48.363 96.905 48.3288 96.8128C48.2606 97.0509 48.1882 97.285 48.1114 97.5154C48.0432 97.7381 47.9836 97.9147 47.9324 98.0452L46.8966 100.533H49.7867Z" fill="#F4D689"/>
<path d="M64.7318 104L61.7266 96.7898H61.6754C61.701 97.0278 61.7223 97.3503 61.7394 97.7573C61.7564 98.1565 61.7649 98.575 61.7649 99.0127V104H60.7035V95.7763H62.4044L65.2177 102.514H65.2689L68.1334 95.7763H69.8215V104H68.6833V98.9436C68.6833 98.5443 68.6918 98.1489 68.7089 97.7573C68.7345 97.3657 68.7558 97.047 68.7728 96.8013H68.7217L65.6781 104H64.7318Z" fill="#F4D689"/>
<path d="M84.4412 104H79.3387V95.7763H84.4412V96.6861H80.4896V99.2545H84.211V100.153H80.4896V103.09H84.4412V104Z" fill="#F4D689"/>
<path d="M95.9973 95.7763C97.1312 95.7763 97.9667 95.972 98.5038 96.3636C99.0494 96.7476 99.3222 97.3311 99.3222 98.1143C99.3222 98.552 99.2327 98.9167 99.0537 99.2085C98.8746 99.5003 98.6445 99.7344 98.3631 99.911C98.0903 100.088 97.8004 100.222 97.4935 100.314L100 104H98.6572L96.4449 100.602H94.629V104H93.4781V95.7763H95.9973ZM95.9334 96.6746H94.629V99.7268H95.9973C96.739 99.7268 97.2804 99.5962 97.6214 99.3352C97.9624 99.0664 98.1329 98.6748 98.1329 98.1604C98.1329 97.6229 97.9539 97.2428 97.5958 97.0201C97.2378 96.7898 96.6836 96.6746 95.9334 96.6746Z" fill="#F4D689"/>
<path fill-rule="evenodd" clip-rule="evenodd" d="M49.9822 86.1937C77.5866 86.1937 99.9644 79.0736 99.9644 70.2905C99.9644 61.5073 77.5866 54.3872 49.9822 54.3872C22.3778 54.3872 0 61.5073 0 70.2905C0 79.0736 22.3778 86.1937 49.9822 86.1937ZM49.9822 80.1238C75.3196 80.1238 95.8596 75.7756 95.8596 70.4119C95.8596 65.0481 75.3196 60.6999 49.9822 60.6999C24.6448 60.6999 4.10482 65.0481 4.10482 70.4119C4.10482 75.7756 24.6448 80.1238 49.9822 80.1238Z" fill="url(#paint0_linear_295_1276)"/>
<path fill-rule="evenodd" clip-rule="evenodd" d="M32.3562 0H60.3655C64.3662 0 67.6093 3.26113 67.6093 7.28393V85.1469C66.1133 85.3292 64.5827 85.4892 63.0216 85.6258V9.22632C63.0216 6.54445 60.8595 4.37036 58.1924 4.37036H37.1854V85.6872C35.5413 85.5519 33.9301 85.3906 32.3562 85.2048V0Z" fill="url(#paint1_linear_295_1276)"/>
<path d="M54.8113 8.01221H58.4332C59.0999 8.01221 59.6405 8.55573 59.6405 9.2262V12.8682H54.8113V8.01221Z" fill="#F4D481"/>
<path d="M54.8113 16.9956H59.6405V21.8516H54.8113V16.9956Z" fill="#F4D481"/>
<path d="M46.3591 8.01221H51.1883V12.8682H46.3591V8.01221Z" fill="#F4D481"/>
<path d="M46.3591 16.9956H51.1883V21.8516H46.3591V16.9956Z" fill="#F4D481"/>
<defs>
<linearGradient id="paint0_linear_295_1276" x1="49.9822" y1="38.7267" x2="49.9822" y2="129.412" gradientUnits="userSpaceOnUse">
<stop stop-color="#F4D687"/>
<stop offset="1" stop-color="#F5DB97" stop-opacity="0.67"/>
</linearGradient>
<linearGradient id="paint1_linear_295_1276" x1="49.9828" y1="46.4958" x2="50.9053" y2="90.2334" gradientUnits="userSpaceOnUse">
<stop stop-color="#F4D481"/>
<stop offset="1" stop-color="#F6DEA0" stop-opacity="0.87"/>
</linearGradient>
</defs>
</svg>
