<svg width="261" height="40" viewBox="0 0 261 40" fill="none" xmlns="http://www.w3.org/2000/svg">
<path d="M87.0489 19.7569C87.0489 23.9468 85.7715 27.1065 83.2166 29.2361C80.6875 31.3426 77.1519 32.3958 72.6099 32.3958H64.9065V7.60416H73.4228C76.1842 7.60416 78.5842 8.06713 80.623 8.99305C82.6876 9.91898 84.2747 11.2847 85.3844 13.0903C86.4941 14.8958 87.0489 17.1181 87.0489 19.7569ZM83.3714 19.8611C83.3714 16.5509 82.4553 14.1319 80.623 12.6042C78.8165 11.0532 76.2487 10.2778 72.9196 10.2778H68.3904V29.7222H72.1454C79.6294 29.7222 83.3714 26.4352 83.3714 19.8611Z" fill="white"/>
<path d="M103.675 7.60416C107.108 7.60416 109.637 8.19444 111.263 9.375C112.914 10.5324 113.74 12.2917 113.74 14.6528C113.74 15.9722 113.469 17.0718 112.927 17.9514C112.385 18.831 111.689 19.537 110.837 20.0694C110.011 20.6019 109.134 21.0069 108.205 21.2847L115.792 32.3958H111.727L105.03 22.1528H99.5335V32.3958H96.0495V7.60416H103.675ZM103.482 10.3125H99.5335V19.5139H103.675C105.921 19.5139 107.559 19.1204 108.592 18.3333C109.624 17.5231 110.14 16.3426 110.14 14.7917C110.14 13.1713 109.598 12.0255 108.514 11.3542C107.43 10.6597 105.753 10.3125 103.482 10.3125Z" fill="white"/>
<path d="M139.395 32.2917H123.949V7.5H139.395V10.2431H127.433V17.9861H138.698V20.6944H127.433V29.5486H139.395V32.2917Z" fill="white"/>
<path d="M167.576 32.5L164.247 24.8264H153.292L150.001 32.5H146.479L157.279 7.60416H160.414L171.176 32.5H167.576ZM163.202 22.0486L160.105 14.5486C160.027 14.3634 159.898 14.0278 159.718 13.5417C159.537 13.0556 159.356 12.5579 159.176 12.0486C159.021 11.5162 158.892 11.1111 158.789 10.8333C158.582 11.5509 158.363 12.2569 158.13 12.9514C157.924 13.6227 157.743 14.1551 157.588 14.5486L154.453 22.0486H163.202Z" fill="white"/>
<path d="M190.503 32.5L181.406 10.7639H181.251C181.328 11.4815 181.393 12.4537 181.445 13.6806C181.496 14.8843 181.522 16.1458 181.522 17.4653V32.5H178.309V7.70833H183.457L191.974 28.0208H192.129L200.8 7.70833H205.91V32.5H202.464V17.2569C202.464 16.0532 202.49 14.8611 202.542 13.6806C202.619 12.5 202.684 11.5393 202.735 10.7986H202.581L193.367 32.5H190.503Z" fill="white"/>
<path d="M231.066 32.3958H215.621V7.60416H231.066V10.3472H219.105V18.0903H230.369V20.7986H219.105V29.6528H231.066V32.3958Z" fill="white"/>
<path d="M248.883 7.60454C252.316 7.60454 254.845 8.19482 256.471 9.37538C258.122 10.5328 258.948 12.292 258.948 14.6532C258.948 15.9726 258.677 17.0721 258.135 17.9518C257.593 18.8314 256.897 19.5374 256.045 20.0698C255.219 20.6022 254.342 21.0073 253.413 21.2851L261 32.3962H256.935L250.238 22.1532H244.741V32.3962H241.258V7.60454H248.883ZM248.69 10.3129H244.741V19.5143H248.883C251.129 19.5143 252.767 19.1207 253.8 18.3337C254.832 17.5235 255.348 16.343 255.348 14.792C255.348 13.1717 254.806 12.0258 253.722 11.3545C252.638 10.6601 250.961 10.3129 248.69 10.3129Z" fill="white"/>
<path fill-rule="evenodd" clip-rule="evenodd" d="M23.2904 40C36.1533 40 46.5808 36.6957 46.5808 32.6197C46.5808 28.5437 36.1533 25.2394 23.2904 25.2394C10.4275 25.2394 0 28.5437 0 32.6197C0 36.6957 10.4275 40 23.2904 40ZM23.2904 37.1831C35.097 37.1831 44.6681 35.1652 44.6681 32.6761C44.6681 30.1869 35.097 28.169 23.2904 28.169C11.4838 28.169 1.91274 30.1869 1.91274 32.6761C1.91274 35.1652 11.4838 37.1831 23.2904 37.1831Z" fill="white"/>
<path fill-rule="evenodd" clip-rule="evenodd" d="M15.0771 0H28.1288C29.993 0 31.5042 1.5134 31.5042 3.38028V39.5144C30.8071 39.599 30.0939 39.6732 29.3664 39.7366V4.28169C29.3664 3.0371 28.3589 2.02817 27.1161 2.02817H17.3274V39.7652C16.5613 39.7023 15.8105 39.6275 15.0771 39.5413V0Z" fill="white"/>
<path d="M25.5405 3.71826H27.2282C27.5389 3.71826 27.7908 3.9705 27.7908 4.28164V5.97178H25.5405V3.71826Z" fill="white"/>
<path d="M25.5405 7.88727H27.7908V10.1408H25.5405V7.88727Z" fill="white"/>
<path d="M21.6023 3.71838H23.8526V5.9719H21.6023V3.71838Z" fill="white"/>
<path d="M21.6023 7.88736H23.8526V10.1409H21.6023V7.88736Z" fill="white"/>
</svg>
